<svg xmlns="http://www.w3.org/2000/svg" viewBox="0 0 120 120" role="img" aria-labelledby="title desc">
  <title id="title">Study Break Arcade logo</title>
  <desc id="desc">An original red circular study-break mark with dots and book shapes.</desc>
  <rect width="120" height="120" rx="24" fill="#fffaf2"/>
  <g fill="#ef1f16">
    <path d="M60 9c8 0 15.5 1.8 22.3 5.1A24.6 24.6 0 0 1 60 25.5a24.6 24.6 0 0 1-22.3-11.4A50.7 50.7 0 0 1 60 9Z"/>
    <path d="M111 60c0 8-1.8 15.5-5.1 22.3A24.6 24.6 0 0 1 94.5 60a24.6 24.6 0 0 1 11.4-22.3A50.7 50.7 0 0 1 111 60Z"/>
    <path d="M60 111c-8 0-15.5-1.8-22.3-5.1A24.6 24.6 0 0 1 60 94.5a24.6 24.6 0 0 1 22.3 11.4A50.7 50.7 0 0 1 60 111Z"/>
    <path d="M9 60c0-8 1.8-15.5 5.1-22.3A24.6 24.6 0 0 1 25.5 60a24.6 24.6 0 0 1-11.4 22.3A50.7 50.7 0 0 1 9 60Z"/>
    <path d="M28.3 20.1A51.5 51.5 0 0 1 45.8 11a24.7 24.7 0 0 1-15.1 20.4 24 24 0 0 1-18.1 1.1 51.4 51.4 0 0 1 15.7-12.4Z"/>
    <path d="M91.7 20.1a51.5 51.5 0 0 0-17.5-9.1 24.7 24.7 0 0 0 15.1 20.4 24 24 0 0 0 18.1 1.1 51.4 51.4 0 0 0-15.7-12.4Z"/>
    <path d="M91.7 99.9a51.5 51.5 0 0 1-17.5 9.1 24.7 24.7 0 0 1 15.1-20.4 24 24 0 0 1 18.1-1.1 51.4 51.4 0 0 1-15.7 12.4Z"/>
    <path d="M28.3 99.9a51.5 51.5 0 0 0 17.5 9.1 24.7 24.7 0 0 0-15.1-20.4 24 24 0 0 0-18.1-1.1 51.4 51.4 0 0 0 15.7 12.4Z"/>
    <circle cx="60" cy="40" r="5.2"/>
    <circle cx="60" cy="80" r="5.2"/>
    <circle cx="40" cy="60" r="5.2"/>
    <circle cx="80" cy="60" r="5.2"/>
    <circle cx="44.8" cy="44.8" r="4.8"/>
    <circle cx="75.2" cy="44.8" r="4.8"/>
    <circle cx="75.2" cy="75.2" r="4.8"/>
    <circle cx="44.8" cy="75.2" r="4.8"/>
  </g>
</svg>
